<?xml version="1.0" encoding="utf-8"?>
<!-- Generator: Adobe Illustrator 17.1.0, SVG Export Plug-In . SVG Version: 6.00 Build 0)  -->
<!DOCTYPE svg PUBLIC "-//W3C//DTD SVG 1.1//EN" "http://www.w3.org/Graphics/SVG/1.1/DTD/svg11.dtd">
<svg version="1.1" id="レイヤー_1" xmlns="http://www.w3.org/2000/svg" xmlns:xlink="http://www.w3.org/1999/xlink" x="0px"
	 y="0px" viewBox="0 0 252.3 360" enable-background="new 0 0 252.3 360" xml:space="preserve">
<polygon fill="#C8231D" points="206.4,44.1 123.3,114.8 40.2,44.1 79,15.1 167.6,15.1 "/>
<g>
	<g>
		<g>
			<polygon fill="#C8231D" points="95.9,44.1 99.5,22.3 68.2,44.1 			"/>
			<polygon fill="#C8231D" points="68.2,44.1 69.5,22.3 44.8,44.1 			"/>
			<polygon fill="#C8231D" points="99.5,22.3 91.6,15.1 69.5,22.3 			"/>
			<polygon fill="#C8231D" points="44.8,44.1 123.3,114.7 40.2,44.1 			"/>
			<polygon fill="#C8231D" points="115.1,95.4 123.3,114.8 101.9,95.4 68.2,44.1 			"/>
			<g>
				<polygon fill="#D6513D" points="123.3,44.1 115.1,95.4 95.9,44.1 				"/>
				<polygon fill="#D6513D" points="123.3,15.1 99.5,22.3 123.3,44.1 				"/>
				<polygon fill="#D6513D" points="69.5,22.3 68.2,44.1 99.5,22.3 				"/>
			</g>
			<g>
				<g>
					<polygon fill="#941D22" points="123.3,44.1 99.5,22.3 95.9,44.1 					"/>
					<polygon fill="#941D22" points="44.8,44.1 69.5,22.3 40.2,44.1 					"/>
					<polygon fill="#941D22" points="79,15.1 69.5,22.3 91.6,15.1 					"/>
					<polygon fill="#941D22" points="91.6,15.1 99.5,22.3 123.3,15.1 					"/>
					<polygon fill="#941D22" points="95.9,44.1 115.1,95.4 68.2,44.1 					"/>
					<polygon fill="#941D22" points="68.2,44.1 101.9,95.6 44.8,44.1 					"/>
					<polygon fill="#941D22" points="123.3,44.1 115.1,95.6 123.3,114.8 					"/>
				</g>
			</g>
		</g>
	</g>
	<g>
		<g>
			<polygon fill="#C8231D" points="150.7,44.1 147.1,22.3 178.4,44.1 			"/>
			<polygon fill="#C8231D" points="178.4,44.1 177.1,22.3 201.8,44.1 			"/>
			<polygon fill="#C8231D" points="147.1,22.3 155,15.1 177.1,22.3 			"/>
			<polygon fill="#C8231D" points="201.8,44.1 123.3,114.7 206.4,44.1 			"/>
			<polygon fill="#C8231D" points="131.5,95.4 123.3,114.8 144.7,95.4 178.4,44.1 			"/>
			<g>
				<polygon fill="#D6513D" points="123.3,44.1 131.5,95.4 150.7,44.1 				"/>
				<polygon fill="#D6513D" points="123.3,15.1 147.1,22.3 123.3,44.1 				"/>
				<polygon fill="#D6513D" points="177.1,22.3 178.4,44.1 147.1,22.3 				"/>
			</g>
			<g>
				<g>
					<polygon fill="#941D22" points="123.3,44.1 147.1,22.3 150.7,44.1 					"/>
					<polygon fill="#941D22" points="201.8,44.1 177.1,22.3 206.4,44.1 					"/>
					<polygon fill="#941D22" points="167.6,15.1 177.1,22.3 155,15.1 					"/>
					<polygon fill="#941D22" points="155,15.1 147.1,22.3 123.3,15.1 					"/>
					<polygon fill="#941D22" points="150.7,44.1 131.5,95.4 178.4,44.1 					"/>
					<polygon fill="#941D22" points="178.4,44.1 144.7,95.6 201.8,44.1 					"/>
					<polygon fill="#941D22" points="123.3,44.1 131.5,95.6 123.3,114.8 					"/>
				</g>
			</g>
		</g>
	</g>
</g>
<g opacity="0.7">
	<defs>
		<polygon id="SVGID_1_" opacity="0.7" points="206.4,44.1 123.3,114.8 40.2,44.1 79,15.1 167.6,15.1 		"/>
	</defs>
	<clipPath id="SVGID_2_">
		<use xlink:href="#SVGID_1_"  overflow="visible"/>
	</clipPath>
	<path clip-path="url(#SVGID_2_)" fill="#040000" d="M163,58.5V19.3h-1.9v-2.1H160v-0.8h1.5l0.6-1.3H148l0.6,1.3h1.5v0.8H149v2.1
		H147v33H99.5V15.1h-16v98.9h16V58.4H147v0.1l-4.3,3.9V115h9.2v-1.7h6.1v1.7h9.2V62.4L163,58.5z M158.1,112.8H152v-1.7h6.1V112.8z
		 M158.1,110.7H152V109h6.1V110.7z M158.1,108.6H152v-1.7h6.1V108.6z M158.1,106.4H152v-1.7h6.1V106.4z M158.1,104.3H152v-1.7h6.1
		V104.3z M158.1,102.2H152v-1.7h6.1V102.2z M158.1,100H152v-1.7h6.1V100z M158.1,97.9H152v-1.7h6.1V97.9z M158.1,95.7H152V94h6.1
		V95.7z M158.1,93.6H152v-1.7h6.1V93.6z M158.1,91.5H152v-1.7h6.1V91.5z M158.1,89.3H152v-1.7h6.1V89.3z M158.1,87.2H152v-1.7h6.1
		V87.2z M158.1,85.1H152v-1.7h6.1V85.1z M158.1,82.9H152v-1.7h6.1V82.9z M158.1,80.8H152v-1.7h6.1V80.8z M158.1,78.7H152v-1.7h6.1
		V78.7z M158.1,76.5H152v-1.7h6.1V76.5z M158.1,74.4H152v-1.7h6.1V74.4z M158.1,72.3H152v-1.7h6.1V72.3z M158.1,70.1H152v-1.7h6.1
		V70.1z M158.1,68H152v-1.7h6.1V68z M158.1,65.9H152v-1.7h6.1V65.9z M158.1,63.7H152V62h6.1V63.7z M158.1,61.6H152v-1.7h6.1V61.6z
		 M158.1,59.5H152v-1.7h6.1V59.5z M158.1,57.3H152v-1.7h6.1V57.3z M158.1,55.2H152v-1.7h6.1V55.2z M158.1,53.1H152v-1.7h6.1V53.1z
		 M158.1,50.9H152v-1.7h6.1V50.9z M158.1,48.8H152V47h6.1V48.8z M158.1,46.7H152v-1.7h6.1V46.7z M158.1,44.5H152v-1.7h6.1V44.5z
		 M158.1,42.4H152v-1.7h6.1V42.4z M158.1,40.2H152v-1.7h6.1V40.2z M158.1,38.1H152v-1.7h6.1V38.1z M158.1,36H152v-1.7h6.1V36z
		 M158.1,33.8H152v-1.7h6.1V33.8z M158.1,31.7H152V30h6.1V31.7z M158.1,29.6H152v-1.7h6.1V29.6z M158.1,27.4H152v-1.7h6.1V27.4z
		 M158.1,25.3H152v-1.7h6.1V25.3z M158.1,23.2H152v-1.7h6.1V23.2z M158.1,21H152v-1.7h6.1V21z"/>
</g>
<g>
	<polygon fill="#C8231D" points="206.4,166 123.3,236.7 40.2,166 79,137 167.6,137 	"/>
	<g>
		<defs>
			<polygon id="SVGID_3_" points="206.4,166 123.3,238.1 40.2,166 79,137 167.6,137 			"/>
		</defs>
		<clipPath id="SVGID_4_">
			<use xlink:href="#SVGID_3_"  overflow="visible"/>
		</clipPath>
		<path clip-path="url(#SVGID_4_)" fill="#FFFFFF" d="M163,180.4v-39.2h-1.9v-2.1H160v-0.8h1.5l0.6-1.3H148l0.6,1.3h1.5v0.8H149v2.1
			H147v33H99.5V137h-16V236h16v-55.7H147v0.1l-4.3,3.9v52.5h9.2v-1.7h6.1v1.7h9.2v-52.5L163,180.4z M158.1,234.7H152V233h6.1V234.7z
			 M158.1,232.6H152v-1.7h6.1V232.6z M158.1,230.5H152v-1.7h6.1V230.5z M158.1,228.3H152v-1.7h6.1V228.3z M158.1,226.2H152v-1.7h6.1
			V226.2z M158.1,224.1H152v-1.7h6.1V224.1z M158.1,221.9H152v-1.7h6.1V221.9z M158.1,219.8H152V218h6.1V219.8z M158.1,217.7H152
			v-1.7h6.1V217.7z M158.1,215.5H152v-1.7h6.1V215.5z M158.1,213.4H152v-1.7h6.1V213.4z M158.1,211.2H152v-1.7h6.1V211.2z
			 M158.1,209.1H152v-1.7h6.1V209.1z M158.1,207H152v-1.7h6.1V207z M158.1,204.8H152v-1.7h6.1V204.8z M158.1,202.7H152V201h6.1
			V202.7z M158.1,200.6H152v-1.7h6.1V200.6z M158.1,198.4H152v-1.7h6.1V198.4z M158.1,196.3H152v-1.7h6.1V196.3z M158.1,194.2H152
			v-1.7h6.1V194.2z M158.1,192H152v-1.7h6.1V192z M158.1,189.9H152v-1.7h6.1V189.9z M158.1,187.8H152V186h6.1V187.8z M158.1,185.6
			H152v-1.7h6.1V185.6z M158.1,183.5H152v-1.7h6.1V183.5z M158.1,181.4H152v-1.7h6.1V181.4z M158.1,179.2H152v-1.7h6.1V179.2z
			 M158.1,177.1H152v-1.7h6.1V177.1z M158.1,175H152v-1.7h6.1V175z M158.1,172.8H152v-1.7h6.1V172.8z M158.1,170.7H152V169h6.1
			V170.7z M158.1,168.6H152v-1.7h6.1V168.6z M158.1,166.4H152v-1.7h6.1V166.4z M158.1,164.3H152v-1.7h6.1V164.3z M158.1,162.2H152
			v-1.7h6.1V162.2z M158.1,160H152v-1.7h6.1V160z M158.1,157.9H152v-1.7h6.1V157.9z M158.1,155.8H152V154h6.1V155.8z M158.1,153.6
			H152v-1.7h6.1V153.6z M158.1,151.5H152v-1.7h6.1V151.5z M158.1,149.3H152v-1.7h6.1V149.3z M158.1,147.2H152v-1.7h6.1V147.2z
			 M158.1,145.1H152v-1.7h6.1V145.1z M158.1,142.9H152v-1.7h6.1V142.9z"/>
	</g>
	<g>
		<path fill="#C8231D" d="M92,136.6h-1.8V133h-3.3v3.6h-1.8v-8.3h1.8v3.3h3.3v-3.3H92V136.6z"/>
		<path fill="#C8231D" d="M97.1,136.6l-0.3-0.9h0c-0.3,0.4-0.6,0.6-0.9,0.8c-0.3,0.1-0.7,0.2-1.2,0.2c-0.6,0-1.1-0.2-1.4-0.5
			c-0.4-0.3-0.5-0.8-0.5-1.5c0-0.7,0.2-1.2,0.7-1.5c0.5-0.3,1.2-0.5,2.1-0.5l1.1,0v-0.3c0-0.6-0.3-1-1-1c-0.5,0-1.1,0.2-1.8,0.5
			l-0.6-1.2c0.7-0.4,1.5-0.6,2.4-0.6c0.9,0,1.5,0.2,2,0.6c0.5,0.4,0.7,0.9,0.7,1.7v4.2H97.1z M96.6,133.6l-0.7,0
			c-0.5,0-0.9,0.1-1.1,0.3c-0.2,0.2-0.4,0.4-0.4,0.8c0,0.5,0.3,0.7,0.8,0.7c0.4,0,0.7-0.1,1-0.3c0.2-0.2,0.4-0.5,0.4-0.9V133.6z"/>
		<path fill="#C8231D" d="M105,136.6h-1.7v-3.7c0-0.5-0.1-0.8-0.2-1c-0.2-0.2-0.4-0.3-0.7-0.3c-0.4,0-0.8,0.2-1,0.5
			c-0.2,0.3-0.3,0.9-0.3,1.6v3h-1.7v-6.4h1.3l0.2,0.8h0.1c0.2-0.3,0.4-0.5,0.7-0.7c0.3-0.2,0.7-0.2,1.1-0.2c1,0,1.6,0.3,1.9,0.9h0.2
			c0.2-0.3,0.4-0.5,0.8-0.7c0.3-0.2,0.7-0.2,1.1-0.2c0.7,0,1.3,0.2,1.6,0.6c0.4,0.4,0.6,1,0.6,1.8v4.2h-1.7v-3.7
			c0-0.5-0.1-0.8-0.2-1c-0.2-0.2-0.4-0.3-0.7-0.3c-0.4,0-0.7,0.2-1,0.5c-0.2,0.3-0.3,0.8-0.3,1.4V136.6z"/>
		<path fill="#C8231D" d="M113.9,136.6l-0.3-0.9h0c-0.3,0.4-0.6,0.6-0.9,0.8c-0.3,0.1-0.7,0.2-1.2,0.2c-0.6,0-1.1-0.2-1.4-0.5
			c-0.4-0.3-0.5-0.8-0.5-1.5c0-0.7,0.2-1.2,0.7-1.5c0.5-0.3,1.2-0.5,2.1-0.5l1.1,0v-0.3c0-0.6-0.3-1-1-1c-0.5,0-1.1,0.2-1.8,0.5
			l-0.6-1.2c0.7-0.4,1.5-0.6,2.4-0.6c0.9,0,1.5,0.2,2,0.6c0.5,0.4,0.7,0.9,0.7,1.7v4.2H113.9z M113.4,133.6l-0.7,0
			c-0.5,0-0.9,0.1-1.1,0.3c-0.2,0.2-0.4,0.4-0.4,0.8c0,0.5,0.3,0.7,0.8,0.7c0.4,0,0.7-0.1,1-0.3c0.2-0.2,0.4-0.5,0.4-0.9V133.6z"/>
		<path fill="#C8231D" d="M121.8,136.6H120v-3.7c0-0.5-0.1-0.8-0.2-1c-0.2-0.2-0.4-0.3-0.7-0.3c-0.4,0-0.8,0.2-1,0.5
			c-0.2,0.3-0.3,0.9-0.3,1.6v3H116v-6.4h1.3l0.2,0.8h0.1c0.2-0.3,0.4-0.5,0.7-0.7c0.3-0.2,0.7-0.2,1.1-0.2c1,0,1.6,0.3,1.9,0.9h0.2
			c0.2-0.3,0.4-0.5,0.8-0.7c0.3-0.2,0.7-0.2,1.1-0.2c0.7,0,1.3,0.2,1.6,0.6c0.4,0.4,0.6,1,0.6,1.8v4.2H124v-3.7c0-0.5-0.1-0.8-0.2-1
			c-0.2-0.2-0.4-0.3-0.7-0.3c-0.4,0-0.7,0.2-1,0.5c-0.2,0.3-0.3,0.8-0.3,1.4V136.6z"/>
		<path fill="#C8231D" d="M130.7,136.6l-0.3-0.9h0c-0.3,0.4-0.6,0.6-0.9,0.8c-0.3,0.1-0.7,0.2-1.2,0.2c-0.6,0-1.1-0.2-1.4-0.5
			c-0.4-0.3-0.5-0.8-0.5-1.5c0-0.7,0.2-1.2,0.7-1.5c0.5-0.3,1.2-0.5,2.1-0.5l1.1,0v-0.3c0-0.6-0.3-1-1-1c-0.5,0-1.1,0.2-1.8,0.5
			l-0.6-1.2c0.7-0.4,1.5-0.6,2.4-0.6c0.9,0,1.5,0.2,2,0.6c0.5,0.4,0.7,0.9,0.7,1.7v4.2H130.7z M130.2,133.6l-0.7,0
			c-0.5,0-0.9,0.1-1.1,0.3c-0.2,0.2-0.4,0.4-0.4,0.8c0,0.5,0.3,0.7,0.8,0.7c0.4,0,0.7-0.1,1-0.3c0.2-0.2,0.4-0.5,0.4-0.9V133.6z"/>
		<path fill="#C8231D" d="M135.5,135.3c0.3,0,0.7-0.1,1.1-0.2v1.3c-0.4,0.2-1,0.3-1.6,0.3c-0.7,0-1.2-0.2-1.5-0.5
			c-0.3-0.4-0.5-0.9-0.5-1.6v-3.1h-0.8v-0.7l1-0.6l0.5-1.3h1.1v1.4h1.8v1.3h-1.8v3.1c0,0.2,0.1,0.4,0.2,0.5
			C135.1,135.2,135.3,135.3,135.5,135.3z"/>
		<path fill="#C8231D" d="M141.5,134.7c0,0.7-0.2,1.2-0.7,1.5c-0.5,0.3-1.1,0.5-2,0.5c-0.5,0-0.9,0-1.2-0.1
			c-0.3-0.1-0.6-0.2-0.9-0.3v-1.4c0.3,0.2,0.7,0.3,1.1,0.4c0.4,0.1,0.8,0.2,1.1,0.2c0.6,0,0.9-0.2,0.9-0.5c0-0.1,0-0.2-0.1-0.3
			c-0.1-0.1-0.2-0.2-0.4-0.3c-0.2-0.1-0.5-0.2-0.8-0.4c-0.5-0.2-0.8-0.4-1.1-0.6c-0.2-0.2-0.4-0.4-0.5-0.6c-0.1-0.2-0.2-0.5-0.2-0.8
			c0-0.6,0.2-1,0.7-1.3c0.4-0.3,1.1-0.5,1.9-0.5c0.8,0,1.5,0.2,2.2,0.5l-0.5,1.3c-0.3-0.1-0.6-0.2-0.9-0.3c-0.3-0.1-0.6-0.1-0.9-0.1
			c-0.5,0-0.8,0.1-0.8,0.4c0,0.2,0.1,0.3,0.2,0.4c0.2,0.1,0.5,0.3,1.1,0.5c0.5,0.2,0.9,0.4,1.1,0.6c0.2,0.2,0.4,0.4,0.5,0.6
			C141.4,134.1,141.5,134.4,141.5,134.7z"/>
		<path fill="#C8231D" d="M146.5,136.6l-0.2-0.8h-0.1c-0.2,0.3-0.5,0.5-0.8,0.7c-0.3,0.2-0.7,0.2-1.2,0.2c-0.7,0-1.3-0.2-1.7-0.6
			c-0.4-0.4-0.6-1-0.6-1.7v-4.2h1.7v3.7c0,0.5,0.1,0.8,0.2,1c0.2,0.2,0.4,0.3,0.8,0.3c0.5,0,0.8-0.2,1.1-0.5
			c0.2-0.3,0.3-0.9,0.3-1.6v-3h1.7v6.4H146.5z"/>
		<path fill="#C8231D" d="M148.5,135.7c0-0.3,0.1-0.6,0.3-0.7c0.2-0.2,0.4-0.2,0.7-0.2c0.3,0,0.6,0.1,0.7,0.3
			c0.2,0.2,0.3,0.4,0.3,0.7c0,0.3-0.1,0.5-0.3,0.7c-0.2,0.2-0.4,0.3-0.7,0.3c-0.3,0-0.6-0.1-0.7-0.3
			C148.6,136.3,148.5,136.1,148.5,135.7z"/>
		<path fill="#C8231D" d="M154.8,130.1c0.2,0,0.4,0,0.6,0.1l-0.1,1.6c-0.1,0-0.3-0.1-0.5-0.1c-0.6,0-1,0.1-1.3,0.4
			c-0.3,0.3-0.5,0.7-0.5,1.2v3.2h-1.7v-6.4h1.3l0.3,1.1h0.1c0.2-0.4,0.5-0.6,0.8-0.9C154,130.2,154.4,130.1,154.8,130.1z"/>
		<path fill="#C8231D" d="M159.2,130.1c0.8,0,1.3,0.3,1.8,0.9c0.4,0.6,0.6,1.4,0.6,2.4c0,1.1-0.2,1.9-0.7,2.4
			c-0.4,0.6-1,0.9-1.8,0.9c-0.7,0-1.3-0.3-1.8-0.8h-0.1l-0.3,0.7h-1.3v-8.9h1.7v2.1c0,0.3,0,0.7-0.1,1.3h0.1
			C157.8,130.4,158.4,130.1,159.2,130.1z M158.6,131.5c-0.4,0-0.7,0.1-0.9,0.4s-0.3,0.7-0.3,1.3v0.2c0,0.7,0.1,1.2,0.3,1.5
			c0.2,0.3,0.5,0.4,1,0.4c0.4,0,0.6-0.2,0.9-0.5c0.2-0.3,0.3-0.8,0.3-1.4s-0.1-1.1-0.3-1.4C159.3,131.6,159,131.5,158.6,131.5z"/>
	</g>
</g>
<g>
	<polygon fill="#040000" points="206.4,284.8 123.3,355.6 40.2,284.8 79,255.9 167.6,255.9 	"/>
	<g>
		<defs>
			<polygon id="SVGID_5_" points="206.4,284.8 123.3,356.9 40.2,284.8 79,255.9 167.6,255.9 			"/>
		</defs>
		<clipPath id="SVGID_6_">
			<use xlink:href="#SVGID_5_"  overflow="visible"/>
		</clipPath>
		<path clip-path="url(#SVGID_6_)" fill="#FFFFFF" d="M163,299.2V260h-1.9v-2.1H160v-0.8h1.5l0.6-1.3H148l0.6,1.3h1.5v0.8H149v2.1
			h-1.9v33H99.6v-37.1h-16v98.9h16v-55.7h47.5v0.1l-4.3,3.9v52.5h9.2V354h6.1v1.7h9.2v-52.5L163,299.2z M158.1,353.6H152v-1.7h6.1
			V353.6z M158.1,351.4H152v-1.7h6.1V351.4z M158.1,349.3H152v-1.7h6.1V349.3z M158.1,347.2H152v-1.7h6.1V347.2z M158.1,345H152
			v-1.7h6.1V345z M158.1,342.9H152v-1.7h6.1V342.9z M158.1,340.8H152V339h6.1V340.8z M158.1,338.6H152v-1.7h6.1V338.6z M158.1,336.5
			H152v-1.7h6.1V336.5z M158.1,334.4H152v-1.7h6.1V334.4z M158.1,332.2H152v-1.7h6.1V332.2z M158.1,330.1H152v-1.7h6.1V330.1z
			 M158.1,327.9H152v-1.7h6.1V327.9z M158.1,325.8H152v-1.7h6.1V325.8z M158.1,323.7H152v-1.7h6.1V323.7z M158.1,321.5H152v-1.7h6.1
			V321.5z M158.1,319.4H152v-1.7h6.1V319.4z M158.1,317.3H152v-1.7h6.1V317.3z M158.1,315.1H152v-1.7h6.1V315.1z M158.1,313H152
			v-1.7h6.1V313z M158.1,310.9H152v-1.7h6.1V310.9z M158.1,308.7H152V307h6.1V308.7z M158.1,306.6H152v-1.7h6.1V306.6z M158.1,304.5
			H152v-1.7h6.1V304.5z M158.1,302.3H152v-1.7h6.1V302.3z M158.1,300.2H152v-1.7h6.1V300.2z M158.1,298.1H152v-1.7h6.1V298.1z
			 M158.1,295.9H152v-1.7h6.1V295.9z M158.1,293.8H152v-1.7h6.1V293.8z M158.1,291.7H152v-1.7h6.1V291.7z M158.1,289.5H152v-1.7h6.1
			V289.5z M158.1,287.4H152v-1.7h6.1V287.4z M158.1,285.3H152v-1.7h6.1V285.3z M158.1,283.1H152v-1.7h6.1V283.1z M158.1,281H152
			v-1.7h6.1V281z M158.1,278.9H152v-1.7h6.1V278.9z M158.1,276.7H152V275h6.1V276.7z M158.1,274.6H152v-1.7h6.1V274.6z M158.1,272.5
			H152v-1.7h6.1V272.5z M158.1,270.3H152v-1.7h6.1V270.3z M158.1,268.2H152v-1.7h6.1V268.2z M158.1,266H152v-1.7h6.1V266z
			 M158.1,263.9H152v-1.7h6.1V263.9z M158.1,261.8H152V260h6.1V261.8z"/>
	</g>
	<g>
		<path fill="#040000" d="M92,255.6h-1.8V252h-3.3v3.6h-1.8v-8.3h1.8v3.3h3.3v-3.3H92V255.6z"/>
		<path fill="#040000" d="M97.1,255.6l-0.3-0.9h0c-0.3,0.4-0.6,0.6-0.9,0.8c-0.3,0.1-0.7,0.2-1.2,0.2c-0.6,0-1.1-0.2-1.4-0.5
			c-0.4-0.3-0.5-0.8-0.5-1.5c0-0.7,0.2-1.2,0.7-1.5c0.5-0.3,1.2-0.5,2.1-0.5l1.1,0v-0.3c0-0.6-0.3-1-1-1c-0.5,0-1.1,0.2-1.8,0.5
			l-0.6-1.2c0.7-0.4,1.5-0.6,2.4-0.6c0.9,0,1.5,0.2,2,0.6c0.5,0.4,0.7,0.9,0.7,1.7v4.2H97.1z M96.6,252.7l-0.7,0
			c-0.5,0-0.9,0.1-1.1,0.3c-0.2,0.2-0.4,0.4-0.4,0.8c0,0.5,0.3,0.7,0.8,0.7c0.4,0,0.7-0.1,1-0.3c0.2-0.2,0.4-0.5,0.4-0.9V252.7z"/>
		<path fill="#040000" d="M105,255.6h-1.7v-3.7c0-0.5-0.1-0.8-0.2-1c-0.2-0.2-0.4-0.3-0.7-0.3c-0.4,0-0.8,0.2-1,0.5
			c-0.2,0.3-0.3,0.9-0.3,1.6v3h-1.7v-6.4h1.3l0.2,0.8h0.1c0.2-0.3,0.4-0.5,0.7-0.7c0.3-0.2,0.7-0.2,1.1-0.2c1,0,1.6,0.3,1.9,0.9h0.2
			c0.2-0.3,0.4-0.5,0.8-0.7c0.3-0.2,0.7-0.2,1.1-0.2c0.7,0,1.3,0.2,1.6,0.6c0.4,0.4,0.6,1,0.6,1.8v4.2h-1.7v-3.7
			c0-0.5-0.1-0.8-0.2-1c-0.2-0.2-0.4-0.3-0.7-0.3c-0.4,0-0.7,0.2-1,0.5c-0.2,0.3-0.3,0.8-0.3,1.4V255.6z"/>
		<path fill="#040000" d="M113.9,255.6l-0.3-0.9h0c-0.3,0.4-0.6,0.6-0.9,0.8c-0.3,0.1-0.7,0.2-1.2,0.2c-0.6,0-1.1-0.2-1.4-0.5
			c-0.4-0.3-0.5-0.8-0.5-1.5c0-0.7,0.2-1.2,0.7-1.5c0.5-0.3,1.2-0.5,2.1-0.5l1.1,0v-0.3c0-0.6-0.3-1-1-1c-0.5,0-1.1,0.2-1.8,0.5
			l-0.6-1.2c0.7-0.4,1.5-0.6,2.4-0.6c0.9,0,1.5,0.2,2,0.6c0.5,0.4,0.7,0.9,0.7,1.7v4.2H113.9z M113.4,252.7l-0.7,0
			c-0.5,0-0.9,0.1-1.1,0.3c-0.2,0.2-0.4,0.4-0.4,0.8c0,0.5,0.3,0.7,0.8,0.7c0.4,0,0.7-0.1,1-0.3c0.2-0.2,0.4-0.5,0.4-0.9V252.7z"/>
		<path fill="#040000" d="M121.8,255.6H120v-3.7c0-0.5-0.1-0.8-0.2-1c-0.2-0.2-0.4-0.3-0.7-0.3c-0.4,0-0.8,0.2-1,0.5
			c-0.2,0.3-0.3,0.9-0.3,1.6v3H116v-6.4h1.3l0.2,0.8h0.1c0.2-0.3,0.4-0.5,0.7-0.7c0.3-0.2,0.7-0.2,1.1-0.2c1,0,1.6,0.3,1.9,0.9h0.2
			c0.2-0.3,0.4-0.5,0.8-0.7c0.3-0.2,0.7-0.2,1.1-0.2c0.7,0,1.3,0.2,1.6,0.6c0.4,0.4,0.6,1,0.6,1.8v4.2H124v-3.7c0-0.5-0.1-0.8-0.2-1
			c-0.2-0.2-0.4-0.3-0.7-0.3c-0.4,0-0.7,0.2-1,0.5c-0.2,0.3-0.3,0.8-0.3,1.4V255.6z"/>
		<path fill="#040000" d="M130.7,255.6l-0.3-0.9h0c-0.3,0.4-0.6,0.6-0.9,0.8c-0.3,0.1-0.7,0.2-1.2,0.2c-0.6,0-1.1-0.2-1.4-0.5
			c-0.4-0.3-0.5-0.8-0.5-1.5c0-0.7,0.2-1.2,0.7-1.5c0.5-0.3,1.2-0.5,2.1-0.5l1.1,0v-0.3c0-0.6-0.3-1-1-1c-0.5,0-1.1,0.2-1.8,0.5
			l-0.6-1.2c0.7-0.4,1.5-0.6,2.4-0.6c0.9,0,1.5,0.2,2,0.6c0.5,0.4,0.7,0.9,0.7,1.7v4.2H130.7z M130.2,252.7l-0.7,0
			c-0.5,0-0.9,0.1-1.1,0.3c-0.2,0.2-0.4,0.4-0.4,0.8c0,0.5,0.3,0.7,0.8,0.7c0.4,0,0.7-0.1,1-0.3c0.2-0.2,0.4-0.5,0.4-0.9V252.7z"/>
		<path fill="#040000" d="M135.5,254.4c0.3,0,0.7-0.1,1.1-0.2v1.3c-0.4,0.2-1,0.3-1.6,0.3c-0.7,0-1.2-0.2-1.5-0.5
			c-0.3-0.4-0.5-0.9-0.5-1.6v-3.1h-0.8v-0.7l1-0.6l0.5-1.3h1.1v1.4h1.8v1.3h-1.8v3.1c0,0.2,0.1,0.4,0.2,0.5S135.3,254.4,135.5,254.4
			z"/>
		<path fill="#040000" d="M141.5,253.7c0,0.7-0.2,1.2-0.7,1.5c-0.5,0.3-1.1,0.5-2,0.5c-0.5,0-0.9,0-1.2-0.1
			c-0.3-0.1-0.6-0.2-0.9-0.3v-1.4c0.3,0.2,0.7,0.3,1.1,0.4c0.4,0.1,0.8,0.2,1.1,0.2c0.6,0,0.9-0.2,0.9-0.5c0-0.1,0-0.2-0.1-0.3
			c-0.1-0.1-0.2-0.2-0.4-0.3c-0.2-0.1-0.5-0.2-0.8-0.4c-0.5-0.2-0.9-0.4-1.1-0.6c-0.2-0.2-0.4-0.4-0.5-0.6c-0.1-0.2-0.2-0.5-0.2-0.8
			c0-0.6,0.2-1,0.7-1.3c0.4-0.3,1.1-0.5,1.9-0.5c0.8,0,1.5,0.2,2.2,0.5l-0.5,1.3c-0.3-0.1-0.6-0.2-0.9-0.3c-0.3-0.1-0.6-0.1-0.8-0.1
			c-0.5,0-0.8,0.1-0.8,0.4c0,0.2,0.1,0.3,0.2,0.4c0.2,0.1,0.5,0.3,1.1,0.5c0.5,0.2,0.9,0.4,1.1,0.6c0.2,0.2,0.4,0.4,0.5,0.6
			C141.4,253.1,141.5,253.4,141.5,253.7z"/>
		<path fill="#040000" d="M146.5,255.6l-0.2-0.8h-0.1c-0.2,0.3-0.5,0.5-0.8,0.7c-0.3,0.2-0.7,0.2-1.2,0.2c-0.7,0-1.3-0.2-1.7-0.6
			c-0.4-0.4-0.6-1-0.6-1.7v-4.2h1.7v3.7c0,0.5,0.1,0.8,0.2,1c0.2,0.2,0.4,0.3,0.8,0.3c0.5,0,0.8-0.2,1.1-0.5
			c0.2-0.3,0.3-0.9,0.3-1.6v-3h1.7v6.4H146.5z"/>
		<path fill="#040000" d="M148.5,254.8c0-0.3,0.1-0.6,0.3-0.7c0.2-0.2,0.4-0.2,0.7-0.2c0.3,0,0.6,0.1,0.7,0.3
			c0.2,0.2,0.3,0.4,0.3,0.7c0,0.3-0.1,0.5-0.3,0.7c-0.2,0.2-0.4,0.3-0.7,0.3c-0.3,0-0.6-0.1-0.7-0.3
			C148.6,255.4,148.5,255.1,148.5,254.8z"/>
		<path fill="#040000" d="M154.8,249.1c0.2,0,0.4,0,0.6,0.1l-0.1,1.6c-0.1,0-0.3-0.1-0.5-0.1c-0.6,0-1,0.1-1.3,0.4
			c-0.3,0.3-0.5,0.7-0.5,1.2v3.2h-1.7v-6.4h1.3l0.3,1.1h0.1c0.2-0.4,0.5-0.6,0.8-0.9S154.4,249.1,154.8,249.1z"/>
		<path fill="#040000" d="M159.2,249.1c0.8,0,1.3,0.3,1.8,0.9c0.4,0.6,0.6,1.4,0.6,2.4c0,1.1-0.2,1.9-0.7,2.4
			c-0.4,0.6-1,0.9-1.8,0.9c-0.7,0-1.3-0.3-1.8-0.8h-0.1l-0.3,0.7h-1.3v-8.9h1.7v2.1c0,0.3,0,0.7-0.1,1.3h0.1
			C157.8,249.4,158.4,249.1,159.2,249.1z M158.6,250.5c-0.4,0-0.7,0.1-0.9,0.4s-0.3,0.7-0.3,1.3v0.2c0,0.7,0.1,1.2,0.3,1.5
			c0.2,0.3,0.5,0.4,1,0.4c0.4,0,0.6-0.2,0.9-0.5c0.2-0.3,0.3-0.8,0.3-1.4c0-0.6-0.1-1.1-0.3-1.4C159.3,250.7,159,250.5,158.6,250.5z
			"/>
	</g>
</g>
<g>
	<path fill="#040000" d="M92,14.9h-1.8v-3.6h-3.3v3.6h-1.8V6.5h1.8v3.3h3.3V6.5H92V14.9z"/>
	<path fill="#040000" d="M97.1,14.9L96.8,14h0c-0.3,0.4-0.6,0.6-0.9,0.8c-0.3,0.1-0.7,0.2-1.2,0.2c-0.6,0-1.1-0.2-1.4-0.5
		c-0.4-0.3-0.5-0.8-0.5-1.5c0-0.7,0.2-1.2,0.7-1.5c0.5-0.3,1.2-0.5,2.1-0.5l1.1,0v-0.3c0-0.6-0.3-1-1-1c-0.5,0-1.1,0.2-1.8,0.5
		L93.3,9c0.7-0.4,1.5-0.6,2.4-0.6c0.9,0,1.5,0.2,2,0.6c0.5,0.4,0.7,0.9,0.7,1.7v4.3H97.1z M96.6,11.9L96,12c-0.5,0-0.9,0.1-1.1,0.3
		c-0.2,0.2-0.4,0.4-0.4,0.8c0,0.5,0.3,0.7,0.8,0.7c0.4,0,0.7-0.1,1-0.3c0.2-0.2,0.4-0.5,0.4-0.9V11.9z"/>
	<path fill="#040000" d="M105,14.9h-1.7v-3.7c0-0.5-0.1-0.8-0.2-1c-0.2-0.2-0.4-0.3-0.7-0.3c-0.4,0-0.8,0.2-1,0.5
		c-0.2,0.3-0.3,0.9-0.3,1.6v3h-1.7V8.5h1.3l0.2,0.8h0.1c0.2-0.3,0.4-0.5,0.7-0.7c0.3-0.2,0.7-0.2,1.1-0.2c1,0,1.6,0.3,1.9,0.9h0.2
		c0.2-0.3,0.4-0.5,0.8-0.7s0.7-0.2,1.1-0.2c0.7,0,1.3,0.2,1.6,0.6c0.4,0.4,0.6,1,0.6,1.8v4.2h-1.7v-3.7c0-0.5-0.1-0.8-0.2-1
		c-0.2-0.2-0.4-0.3-0.7-0.3c-0.4,0-0.7,0.2-1,0.5c-0.2,0.3-0.3,0.8-0.3,1.4V14.9z"/>
	<path fill="#040000" d="M113.9,14.9l-0.3-0.9h0c-0.3,0.4-0.6,0.6-0.9,0.8c-0.3,0.1-0.7,0.2-1.2,0.2c-0.6,0-1.1-0.2-1.4-0.5
		c-0.4-0.3-0.5-0.8-0.5-1.5c0-0.7,0.2-1.2,0.7-1.5c0.5-0.3,1.2-0.5,2.1-0.5l1.1,0v-0.3c0-0.6-0.3-1-1-1c-0.5,0-1.1,0.2-1.8,0.5
		L110,9c0.7-0.4,1.5-0.6,2.4-0.6c0.9,0,1.5,0.2,2,0.6c0.5,0.4,0.7,0.9,0.7,1.7v4.3H113.9z M113.4,11.9l-0.7,0
		c-0.5,0-0.9,0.1-1.1,0.3c-0.2,0.2-0.4,0.4-0.4,0.8c0,0.5,0.3,0.7,0.8,0.7c0.4,0,0.7-0.1,1-0.3s0.4-0.5,0.4-0.9V11.9z"/>
	<path fill="#040000" d="M121.8,14.9H120v-3.7c0-0.5-0.1-0.8-0.2-1c-0.2-0.2-0.4-0.3-0.7-0.3c-0.4,0-0.8,0.2-1,0.5
		c-0.2,0.3-0.3,0.9-0.3,1.6v3H116V8.5h1.3l0.2,0.8h0.1c0.2-0.3,0.4-0.5,0.7-0.7c0.3-0.2,0.7-0.2,1.1-0.2c1,0,1.6,0.3,1.9,0.9h0.2
		c0.2-0.3,0.4-0.5,0.8-0.7s0.7-0.2,1.1-0.2c0.7,0,1.3,0.2,1.6,0.6c0.4,0.4,0.6,1,0.6,1.8v4.2H124v-3.7c0-0.5-0.1-0.8-0.2-1
		c-0.2-0.2-0.4-0.3-0.7-0.3c-0.4,0-0.7,0.2-1,0.5c-0.2,0.3-0.3,0.8-0.3,1.4V14.9z"/>
	<path fill="#040000" d="M130.7,14.9l-0.3-0.9h0c-0.3,0.4-0.6,0.6-0.9,0.8c-0.3,0.1-0.7,0.2-1.2,0.2c-0.6,0-1.1-0.2-1.4-0.5
		c-0.4-0.3-0.5-0.8-0.5-1.5c0-0.7,0.2-1.2,0.7-1.5c0.5-0.3,1.2-0.5,2.1-0.5l1.1,0v-0.3c0-0.6-0.3-1-1-1c-0.5,0-1.1,0.2-1.8,0.5
		L126.8,9c0.7-0.4,1.5-0.6,2.4-0.6c0.9,0,1.5,0.2,2,0.6c0.5,0.4,0.7,0.9,0.7,1.7v4.3H130.7z M130.2,11.9l-0.7,0
		c-0.5,0-0.9,0.1-1.1,0.3c-0.2,0.2-0.4,0.4-0.4,0.8c0,0.5,0.3,0.7,0.8,0.7c0.4,0,0.7-0.1,1-0.3c0.2-0.2,0.4-0.5,0.4-0.9V11.9z"/>
	<path fill="#040000" d="M135.5,13.6c0.3,0,0.7-0.1,1.1-0.2v1.3c-0.4,0.2-1,0.3-1.6,0.3c-0.7,0-1.2-0.2-1.5-0.5
		c-0.3-0.4-0.5-0.9-0.5-1.6V9.8h-0.8V9.1l1-0.6l0.5-1.3h1.1v1.4h1.8v1.3h-1.8v3.1c0,0.2,0.1,0.4,0.2,0.5S135.3,13.6,135.5,13.6z"/>
	<path fill="#040000" d="M141.5,13c0,0.7-0.2,1.2-0.7,1.5c-0.5,0.3-1.1,0.5-2,0.5c-0.5,0-0.9,0-1.2-0.1c-0.3-0.1-0.6-0.2-0.9-0.3
		v-1.4c0.3,0.2,0.7,0.3,1.1,0.4c0.4,0.1,0.8,0.2,1.1,0.2c0.6,0,0.9-0.2,0.9-0.5c0-0.1,0-0.2-0.1-0.3c-0.1-0.1-0.2-0.2-0.4-0.3
		c-0.2-0.1-0.5-0.2-0.8-0.4c-0.5-0.2-0.9-0.4-1.1-0.6c-0.2-0.2-0.4-0.4-0.5-0.6c-0.1-0.2-0.2-0.5-0.2-0.8c0-0.6,0.2-1,0.7-1.3
		c0.4-0.3,1.1-0.5,1.9-0.5c0.8,0,1.5,0.2,2.2,0.5l-0.5,1.3c-0.3-0.1-0.6-0.2-0.9-0.3c-0.3-0.1-0.6-0.1-0.8-0.1
		c-0.5,0-0.8,0.1-0.8,0.4c0,0.2,0.1,0.3,0.2,0.4c0.2,0.1,0.5,0.3,1.1,0.5c0.5,0.2,0.9,0.4,1.1,0.6c0.2,0.2,0.4,0.4,0.5,0.6
		C141.4,12.4,141.5,12.7,141.5,13z"/>
	<path fill="#040000" d="M146.5,14.9l-0.2-0.8h-0.1c-0.2,0.3-0.5,0.5-0.8,0.7c-0.3,0.2-0.7,0.2-1.2,0.2c-0.7,0-1.3-0.2-1.7-0.6
		c-0.4-0.4-0.6-1-0.6-1.7V8.5h1.7v3.7c0,0.5,0.1,0.8,0.2,1c0.2,0.2,0.4,0.3,0.8,0.3c0.5,0,0.8-0.2,1.1-0.5c0.2-0.3,0.3-0.9,0.3-1.6
		v-3h1.7v6.4H146.5z"/>
	<path fill="#040000" d="M148.5,14.1c0-0.3,0.1-0.6,0.3-0.7c0.2-0.2,0.4-0.2,0.7-0.2c0.3,0,0.6,0.1,0.7,0.3c0.2,0.2,0.3,0.4,0.3,0.7
		c0,0.3-0.1,0.5-0.3,0.7c-0.2,0.2-0.4,0.3-0.7,0.3c-0.3,0-0.6-0.1-0.7-0.3C148.6,14.6,148.5,14.4,148.5,14.1z"/>
	<path fill="#040000" d="M154.8,8.4c0.2,0,0.4,0,0.6,0.1l-0.1,1.6c-0.1,0-0.3-0.1-0.5-0.1c-0.6,0-1,0.1-1.3,0.4
		c-0.3,0.3-0.5,0.7-0.5,1.2v3.2h-1.7V8.5h1.3l0.3,1.1h0.1c0.2-0.4,0.5-0.6,0.8-0.9C154,8.5,154.4,8.4,154.8,8.4z"/>
	<path fill="#040000" d="M159.2,8.4c0.8,0,1.3,0.3,1.8,0.9c0.4,0.6,0.6,1.4,0.6,2.4c0,1.1-0.2,1.9-0.7,2.4c-0.4,0.6-1,0.9-1.8,0.9
		c-0.7,0-1.3-0.3-1.8-0.8h-0.1l-0.3,0.7h-1.3V6h1.7v2.1c0,0.3,0,0.7-0.1,1.3h0.1C157.8,8.7,158.4,8.4,159.2,8.4z M158.6,9.8
		c-0.4,0-0.7,0.1-0.9,0.4c-0.2,0.3-0.3,0.7-0.3,1.3v0.2c0,0.7,0.1,1.2,0.3,1.5c0.2,0.3,0.5,0.4,1,0.4c0.4,0,0.6-0.2,0.9-0.5
		c0.2-0.3,0.3-0.8,0.3-1.4c0-0.6-0.1-1.1-0.3-1.4C159.3,9.9,159,9.8,158.6,9.8z"/>
</g>
</svg>
